<mxfile host="app.diagrams.net" modified="2023-11-30T16:55:15.012Z" agent="Mozilla/5.0 (X11; Linux x86_64) AppleWebKit/537.36 (KHTML, like Gecko) Chrome/119.0.0.0 Safari/537.36" etag="JRcbjswANp5kKs1J_sY-" version="21.3.3" type="device">
  <diagram name="Strona-1" id="FE2vPFY5LMOxbsTVDJF2">
    <mxGraphModel dx="3442" dy="1338" grid="1" gridSize="10" guides="1" tooltips="1" connect="1" arrows="1" fold="1" page="1" pageScale="1" pageWidth="1169" pageHeight="827" math="0" shadow="0">
      <root>
        <mxCell id="0" />
        <mxCell id="1" parent="0" />
        <object label="&lt;div style=&quot;font-size: 16px&quot; align=&quot;left&quot;&gt;&lt;font style=&quot;font-size: 16px&quot;&gt;&lt;b&gt;%A_NAME%&lt;br&gt;&lt;/b&gt;&lt;/font&gt;&lt;/div&gt;&lt;div align=&quot;left&quot;&gt;&lt;font style=&quot;font-size: 11px&quot;&gt;[Software System]&lt;/font&gt;&lt;/div&gt;" placeholders="1" A_NAME="Auth Service" id="3yBkZQmyVoDCvQ0rM44T-10">
          <mxCell style="rounded=1;whiteSpace=wrap;html=1;dashed=1;arcSize=20;fillColor=#76608a;strokeColor=#432D57;labelBackgroundColor=none;align=left;verticalAlign=bottom;labelBorderColor=none;spacingTop=0;spacing=10;dashPattern=8 4;metaEdit=1;rotatable=0;perimeter=rectanglePerimeter;labelPadding=0;allowArrows=0;connectable=0;expand=0;recursiveResize=0;editable=1;pointerEvents=0;absoluteArcSize=1;fontColor=#ffffff;" vertex="1" parent="1">
            <mxGeometry x="650" y="1170" width="300" height="430" as="geometry" />
          </mxCell>
        </object>
        <object label="&lt;div style=&quot;font-size: 16px&quot; align=&quot;left&quot;&gt;&lt;font style=&quot;font-size: 16px&quot;&gt;&lt;b&gt;%A_NAME%&lt;br&gt;&lt;/b&gt;&lt;/font&gt;&lt;/div&gt;&lt;div align=&quot;left&quot;&gt;&lt;font style=&quot;font-size: 11px&quot;&gt;[Software System]&lt;/font&gt;&lt;/div&gt;" placeholders="1" A_NAME="Communication systems" id="3yBkZQmyVoDCvQ0rM44T-1">
          <mxCell style="rounded=1;whiteSpace=wrap;html=1;dashed=1;arcSize=20;fillColor=#bac8d3;strokeColor=#23445d;labelBackgroundColor=none;align=left;verticalAlign=bottom;labelBorderColor=none;spacingTop=0;spacing=10;dashPattern=8 4;metaEdit=1;rotatable=0;perimeter=rectanglePerimeter;labelPadding=0;allowArrows=0;connectable=0;expand=0;recursiveResize=0;editable=1;pointerEvents=0;absoluteArcSize=1;" vertex="1" parent="1">
            <mxGeometry x="10" y="680" width="300" height="430" as="geometry" />
          </mxCell>
        </object>
        <object label="&lt;div style=&quot;font-size: 16px&quot; align=&quot;left&quot;&gt;&lt;font style=&quot;font-size: 16px&quot;&gt;&lt;b&gt;%A_NAME%&lt;br&gt;&lt;/b&gt;&lt;/font&gt;&lt;/div&gt;&lt;div align=&quot;left&quot;&gt;&lt;font style=&quot;font-size: 11px&quot;&gt;[Software System]&lt;/font&gt;&lt;/div&gt;" placeholders="1" A_NAME="Main API server" id="K7Ijc074V3d1b9qZD38j-7">
          <mxCell style="rounded=1;whiteSpace=wrap;html=1;dashed=1;arcSize=20;fillColor=#60a917;strokeColor=#2D7600;labelBackgroundColor=none;align=left;verticalAlign=bottom;labelBorderColor=none;spacingTop=0;spacing=10;dashPattern=8 4;metaEdit=1;rotatable=0;perimeter=rectanglePerimeter;labelPadding=0;allowArrows=0;connectable=0;expand=0;recursiveResize=0;editable=1;pointerEvents=0;absoluteArcSize=1;fontColor=#ffffff;" parent="1" vertex="1">
            <mxGeometry x="434" y="680" width="300" height="430" as="geometry" />
          </mxCell>
        </object>
        <object label="&lt;font style=&quot;font-size: 16px&quot;&gt;&lt;b&gt;&lt;font style=&quot;font-size: 16px&quot;&gt;&lt;span&gt;%A_NAME%&lt;/span&gt;&lt;/font&gt;&lt;/b&gt;&lt;/font&gt;&lt;br&gt;&lt;div&gt;&lt;font style=&quot;font-size: 11px&quot;&gt;[Container: %B_TECHNOLOGY%]&lt;/font&gt;&lt;/div&gt;&lt;div style=&quot;font-size: 10px&quot;&gt;&lt;br&gt;&lt;/div&gt;&lt;div style=&quot;font-size: 11px&quot;&gt;&lt;font&gt;%C_DESCRIPTION%&lt;/font&gt;&lt;/div&gt;" A_NAME="ApartDb" B_TECHNOLOGY="Postgres" C_DESCRIPTION="Stores data about users and apartments " placeholders="1" id="K7Ijc074V3d1b9qZD38j-1">
          <mxCell style="shape=cylinder3;whiteSpace=wrap;html=1;boundedLbl=1;backgroundOutline=1;size=15;rounded=1;fontColor=#FFFFFF;arcSize=6;autosize=0;metaEdit=1;resizable=0;rotatable=0;allowArrows=0;fillColor=#23A2D9;strokeColor=#0E7DAD;spacingTop=0;recursiveResize=0;expand=0;" parent="1" vertex="1">
            <mxGeometry x="465" y="935" width="240" height="120" as="geometry" />
          </mxCell>
        </object>
        <object label="&lt;div style=&quot;font-size: 16px&quot;&gt;&lt;font style=&quot;font-size: 16px&quot;&gt;&lt;b&gt;&lt;font style=&quot;font-size: 16px&quot;&gt;[Containers] %A_C2_DIAGRAM_NAME%&lt;br&gt;&lt;/font&gt;&lt;/b&gt;&lt;/font&gt;&lt;/div&gt;&lt;div&gt;&lt;font style=&quot;font-size: 12px&quot;&gt;%B_C2_DIAGRAM_DESCRIPTION%&lt;br&gt;&lt;/font&gt;&lt;/div&gt;" placeholders="1" A_C2_DIAGRAM_NAME="ApartManager System overview" B_C2_DIAGRAM_DESCRIPTION="" id="K7Ijc074V3d1b9qZD38j-2">
          <mxCell style="text;html=1;strokeColor=none;fillColor=none;align=left;verticalAlign=top;whiteSpace=wrap;rounded=0;metaEdit=1;allowArrows=0;resizable=1;rotatable=0;pointerEvents=0;expand=0;recursiveResize=0;connectable=0;fontColor=#FFFFFF;" parent="1" vertex="1">
            <mxGeometry width="350" height="40" as="geometry" />
          </mxCell>
        </object>
        <object label="&lt;div&gt;&lt;font style=&quot;font-size: 16px&quot; color=&quot;#FFFFFF&quot;&gt;&lt;b&gt;&lt;font style=&quot;font-size: 16px&quot;&gt;&lt;span&gt;%A_NAME%&lt;/span&gt;&lt;/font&gt;&lt;/b&gt;&lt;/font&gt;&lt;/div&gt;&lt;div&gt;&lt;font style=&quot;font-size: 11px&quot; color=&quot;#FFFFFF&quot;&gt;[Container: %B_TECHNOLOGY%]&lt;/font&gt;&lt;/div&gt;&lt;div style=&quot;font-size: 10px&quot;&gt;&lt;br&gt;&lt;/div&gt;&lt;div style=&quot;font-size: 11px&quot;&gt;&lt;font color=&quot;#E6E6E6&quot;&gt;%C_DESCRIPTION%&lt;/font&gt;&lt;/div&gt;" A_NAME="Web app" B_TECHNOLOGY="TypeScript + Angular" placeholders="1" C_DESCRIPTION="Web app for customers" id="K7Ijc074V3d1b9qZD38j-3">
          <mxCell style="shape=stencil(3VbBboMwDP2aHKkSp5T2iKD7j5CmawRNUGCi29cvxRyWDmintZpWCQnZznuxX2IrhGfNQdSKADXiqAjPCcBRSK1KvoojuYw6VUSFs12jnA/5dQdcxFYU7Q5tWA62aGolW3Tu9Unt0N20zpaq07t2INDmoJxuz1G+JTT1a84fz6Q1xjNoa5og8iXuyYQ2HktPSEYXMW7zPtho1X6Ho2p96pgzegm83E4c0i6SexGzRxHTBYRasPsxP4w4+QUzz7xn6tLwrBCyfHX2zexG8+kj7nxjp858/JpftoFwstEfQwfF8xpgL0hbWd9TFP89jgCn2yRP83n8XlfVOJqxdZrdgMYMpsSckMxDrVM/0zI81zjQkiWbUEsYkfKaltNaAE8h31xHz4RHCmLrzVxJ8P8qArp6toqAP1lFYRsBhDOJX8wkPlbSX1TUT5NvQ6P34rOjd3wC);whiteSpace=wrap;html=1;allowArrows=0;recursiveResize=0;expand=0;metaEdit=1;resizable=0;rotatable=0;spacing=5;spacingTop=12;" parent="1" vertex="1">
            <mxGeometry x="464" y="360" width="240" height="160" as="geometry" />
          </mxCell>
        </object>
        <object label="&lt;font style=&quot;font-size: 16px&quot;&gt;&lt;b&gt;%A_NAME%&lt;/b&gt;&lt;/font&gt;&lt;br&gt;&lt;div&gt;&lt;font style=&quot;font-size: 11px&quot;&gt;[Person]&lt;/font&gt;&lt;/div&gt;&lt;div style=&quot;font-size: 10px&quot;&gt;&lt;br&gt;&lt;/div&gt;&lt;div style=&quot;font-size: 11px&quot;&gt;&lt;font color=&quot;#CCCCCC&quot;&gt;%B_DESCRIPTION%&lt;/font&gt;&lt;/div&gt;" A_NAME="Customer" B_DESCRIPTION="Customer interested in managing his apartment through the system" placeholders="1" id="K7Ijc074V3d1b9qZD38j-4">
          <mxCell style="shape=stencil(tZTRUsMgEEW/hsdmCNimr06s/4Fka3aSQAZwWv16STYZRaXjaDuTl3sXTu6SJUzWvlUjMMGNGoDJBybEoDRCJ3fbjb7bjOC8NdGNS1qql3tO+kRa8EUrP4IOZB7xDA3ZPjjbwQmbsADQtOAwTFV5YPw+rpkeWWtrTCSgNT6pfKpHmEIT9/IzwXixpde8LppUzI0DBHBLZnKZePw9OMUW1bXA5a3AvBDpWZTXI98MXP2DLOvo5IZG1k9Kd8/OvpjmxzxzxU0Tm/nmVWbO13tQrnPvtMe35fZIcfkUjtj3dCNyDWVix63WwYV+oO9x9PDRze7LCCfd7NNmVvn32N/SzS79XmbjHQ==);whiteSpace=wrap;html=1;rounded=1;fontColor=#ffffff;arcSize=30;allowArrows=0;rotatable=0;spacingTop=70;aspect=fixed;editable=1;metaEdit=1;resizable=0;strokeColor=#06315C;fillColor=#083F75;recursiveResize=0;expand=0;" parent="1" vertex="1">
            <mxGeometry x="484" y="10" width="200" height="180" as="geometry" />
          </mxCell>
        </object>
        <object label="&lt;div&gt;&lt;b&gt;%A_DESCRIPTION%&lt;/b&gt;&lt;br&gt;&lt;/div&gt;" placeholders="1" A_DESCRIPTION="Manages his apartment through web app" id="K7Ijc074V3d1b9qZD38j-5">
          <mxCell style="endArrow=blockThin;html=1;fontSize=10;fontColor=#FFFFFF;strokeWidth=1;endFill=1;strokeColor=#828282;elbow=vertical;metaEdit=1;backgroundOutline=0;editable=1;endSize=14;startSize=14;jumpStyle=arc;jumpSize=16;fontFamily=Helvetica;rounded=0;entryX=0.5;entryY=0;entryDx=0;entryDy=0;exitX=0.5;exitY=1;exitDx=0;exitDy=0;" parent="1" source="K7Ijc074V3d1b9qZD38j-4" target="K7Ijc074V3d1b9qZD38j-3" edge="1">
            <mxGeometry width="50" height="50" relative="1" as="geometry">
              <mxPoint x="489" y="210" as="sourcePoint" />
              <mxPoint x="729" y="210" as="targetPoint" />
            </mxGeometry>
          </mxCell>
        </object>
        <mxCell id="3yBkZQmyVoDCvQ0rM44T-14" style="edgeStyle=orthogonalEdgeStyle;rounded=0;orthogonalLoop=1;jettySize=auto;html=1;exitX=1;exitY=0.75;exitDx=0;exitDy=0;exitPerimeter=0;entryX=0.5;entryY=0;entryDx=0;entryDy=0;entryPerimeter=0;strokeColor=#808080;endSize=14;startSize=14;jumpSize=16;endArrow=blockThin;endFill=1;" edge="1" parent="1" source="K7Ijc074V3d1b9qZD38j-6" target="3yBkZQmyVoDCvQ0rM44T-12">
          <mxGeometry relative="1" as="geometry" />
        </mxCell>
        <mxCell id="3yBkZQmyVoDCvQ0rM44T-15" value="Sends call to authenticate user" style="edgeLabel;html=1;align=center;verticalAlign=middle;resizable=0;points=[];fontStyle=1;fontSize=10;fontColor=#FFFFFF;" vertex="1" connectable="0" parent="3yBkZQmyVoDCvQ0rM44T-14">
          <mxGeometry x="-0.0363" y="3" relative="1" as="geometry">
            <mxPoint x="-3" y="192" as="offset" />
          </mxGeometry>
        </mxCell>
        <object label="&lt;font style=&quot;font-size: 16px&quot;&gt;&lt;b&gt;%A_NAME%&lt;/b&gt;&lt;/font&gt;&lt;br&gt;&lt;div&gt;&lt;div&gt;&lt;font style=&quot;font-size: 11px&quot;&gt;[Component: %B_TECHNOLOGY%]&lt;/font&gt;&lt;/div&gt;&lt;/div&gt;&lt;div style=&quot;font-size: 10px&quot;&gt;&lt;br&gt;&lt;/div&gt;&lt;div style=&quot;font-size: 11px&quot;&gt;&lt;font color=&quot;#FAFAFA&quot;&gt;%C_DESCRIPTION%&lt;/font&gt;&lt;/div&gt;" placeholders="1" A_NAME="ApartManager API Server" B_TECHNOLOGY="Spring Service" C_DESCRIPTION="Allows customers to manage their apartments " id="K7Ijc074V3d1b9qZD38j-6">
          <mxCell style="rounded=1;whiteSpace=wrap;html=1;fontColor=#ffffff;arcSize=6;metaEdit=1;points=[[0.25,0,0],[0.5,0,0],[0.75,0,0],[1,0.25,0],[1,0.5,0],[1,0.75,0],[0.75,1,0],[0.5,1,0],[0.25,1,0],[0,0.75,0],[0,0.5,0],[0,0.25,0]];resizable=0;editable=1;movableLabel=0;allowArrows=0;rotatable=0;strokeColor=#2086C9;fillColor=#63BEF2;recursiveResize=0;expand=0;" parent="1" vertex="1">
            <mxGeometry x="465" y="725" width="240" height="120" as="geometry" />
          </mxCell>
        </object>
        <object label="&lt;div style=&quot;font-size: 16px&quot; align=&quot;left&quot;&gt;&lt;font style=&quot;font-size: 16px&quot;&gt;&lt;b&gt;%A_NAME%&lt;br&gt;&lt;/b&gt;&lt;/font&gt;&lt;/div&gt;&lt;div align=&quot;left&quot;&gt;&lt;font style=&quot;font-size: 11px&quot;&gt;[Container]&lt;/font&gt;&lt;/div&gt;" placeholders="1" A_NAME="External Integration systems" id="K7Ijc074V3d1b9qZD38j-11">
          <mxCell style="rounded=1;whiteSpace=wrap;html=1;dashed=1;arcSize=20;fillColor=#a20025;strokeColor=#6F0000;labelBackgroundColor=none;align=left;verticalAlign=bottom;labelBorderColor=none;spacingTop=0;spacing=10;dashPattern=8 4;metaEdit=1;rotatable=0;perimeter=rectanglePerimeter;labelPadding=0;allowArrows=0;connectable=0;expand=0;recursiveResize=0;editable=1;pointerEvents=0;absoluteArcSize=1;fontColor=#FFFFFF;" parent="1" vertex="1">
            <mxGeometry x="860" y="480" width="820" height="630" as="geometry" />
          </mxCell>
        </object>
        <mxCell id="3yBkZQmyVoDCvQ0rM44T-3" value="Reads from and writes to db" style="edgeStyle=orthogonalEdgeStyle;rounded=0;orthogonalLoop=1;jettySize=auto;html=1;exitX=0.5;exitY=1;exitDx=0;exitDy=0;exitPerimeter=0;entryX=0.5;entryY=0;entryDx=0;entryDy=0;entryPerimeter=0;fontColor=#FFFFFF;fontStyle=1;fontSize=10;endArrow=blockThin;endFill=1;endSize=14;startSize=14;jumpSize=16;jumpStyle=arc;strokeColor=#808080;" edge="1" parent="1" source="K7Ijc074V3d1b9qZD38j-13" target="3yBkZQmyVoDCvQ0rM44T-2">
          <mxGeometry x="0.0769" relative="1" as="geometry">
            <mxPoint as="offset" />
          </mxGeometry>
        </mxCell>
        <object label="&lt;font style=&quot;font-size: 16px&quot;&gt;&lt;b&gt;%A_NAME%&lt;/b&gt;&lt;/font&gt;&lt;br&gt;&lt;div&gt;&lt;div&gt;&lt;font style=&quot;font-size: 11px&quot;&gt;[Component: %B_TECHNOLOGY%]&lt;/font&gt;&lt;/div&gt;&lt;/div&gt;&lt;div style=&quot;font-size: 10px&quot;&gt;&lt;br&gt;&lt;/div&gt;&lt;div style=&quot;font-size: 11px&quot;&gt;&lt;font color=&quot;#FAFAFA&quot;&gt;%C_DESCRIPTION%&lt;/font&gt;&lt;/div&gt;" placeholders="1" A_NAME="MessagingService" B_TECHNOLOGY="Spring Service" C_DESCRIPTION="Sends notifications via sms, mail, etc" id="K7Ijc074V3d1b9qZD38j-13">
          <mxCell style="rounded=1;whiteSpace=wrap;html=1;fontColor=#ffffff;arcSize=6;metaEdit=1;points=[[0.25,0,0],[0.5,0,0],[0.75,0,0],[1,0.25,0],[1,0.5,0],[1,0.75,0],[0.75,1,0],[0.5,1,0],[0.25,1,0],[0,0.75,0],[0,0.5,0],[0,0.25,0]];resizable=0;editable=1;movableLabel=0;allowArrows=0;rotatable=0;strokeColor=#2086C9;fillColor=#63BEF2;recursiveResize=0;expand=0;" parent="1" vertex="1">
            <mxGeometry x="40" y="725" width="240" height="120" as="geometry" />
          </mxCell>
        </object>
        <mxCell id="3yBkZQmyVoDCvQ0rM44T-6" style="rounded=0;orthogonalLoop=1;jettySize=auto;html=1;exitX=1;exitY=0.5;exitDx=0;exitDy=0;exitPerimeter=0;entryX=0;entryY=0.5;entryDx=0;entryDy=0;entryPerimeter=0;endSize=14;startSize=14;jumpStyle=arc;jumpSize=16;endArrow=blockThin;endFill=1;strokeColor=#999999;" edge="1" parent="1" source="K7Ijc074V3d1b9qZD38j-14" target="3yBkZQmyVoDCvQ0rM44T-4">
          <mxGeometry relative="1" as="geometry" />
        </mxCell>
        <mxCell id="3yBkZQmyVoDCvQ0rM44T-8" value="Send changes to Trivago.com service" style="edgeLabel;html=1;align=center;verticalAlign=middle;resizable=0;points=[];fontSize=10;fontColor=#FFFFFF;fontStyle=1" vertex="1" connectable="0" parent="3yBkZQmyVoDCvQ0rM44T-6">
          <mxGeometry x="0.0904" relative="1" as="geometry">
            <mxPoint x="12" as="offset" />
          </mxGeometry>
        </mxCell>
        <mxCell id="3yBkZQmyVoDCvQ0rM44T-7" style="rounded=0;orthogonalLoop=1;jettySize=auto;html=1;exitX=1;exitY=0.5;exitDx=0;exitDy=0;exitPerimeter=0;entryX=0;entryY=0.5;entryDx=0;entryDy=0;entryPerimeter=0;endSize=14;startSize=14;jumpSize=16;endArrow=blockThin;endFill=1;jumpStyle=arc;strokeColor=#808080;" edge="1" parent="1" source="K7Ijc074V3d1b9qZD38j-14" target="3yBkZQmyVoDCvQ0rM44T-5">
          <mxGeometry relative="1" as="geometry" />
        </mxCell>
        <mxCell id="3yBkZQmyVoDCvQ0rM44T-9" value="Sends changes to Nocowanie.pl service" style="edgeLabel;html=1;align=center;verticalAlign=middle;resizable=0;points=[];fontStyle=1;fontSize=10;fontColor=#FFFFFF;" vertex="1" connectable="0" parent="3yBkZQmyVoDCvQ0rM44T-7">
          <mxGeometry x="-0.1186" y="-1" relative="1" as="geometry">
            <mxPoint x="43" y="43" as="offset" />
          </mxGeometry>
        </mxCell>
        <object label="&lt;font style=&quot;font-size: 16px&quot;&gt;&lt;b&gt;%A_NAME%&lt;/b&gt;&lt;/font&gt;&lt;br&gt;&lt;div&gt;&lt;div&gt;&lt;font style=&quot;font-size: 11px&quot;&gt;[Component: %B_TECHNOLOGY%]&lt;/font&gt;&lt;/div&gt;&lt;/div&gt;&lt;div style=&quot;font-size: 10px&quot;&gt;&lt;br&gt;&lt;/div&gt;&lt;div style=&quot;font-size: 11px&quot;&gt;&lt;font color=&quot;#FAFAFA&quot;&gt;%C_DESCRIPTION%&lt;/font&gt;&lt;/div&gt;" placeholders="1" A_NAME="External Integration system" B_TECHNOLOGY="Spring Service" C_DESCRIPTION="General integration system with external services" id="K7Ijc074V3d1b9qZD38j-14">
          <mxCell style="rounded=1;whiteSpace=wrap;html=1;fontColor=#ffffff;arcSize=6;metaEdit=1;points=[[0.25,0,0],[0.5,0,0],[0.75,0,0],[1,0.25,0],[1,0.5,0],[1,0.75,0],[0.75,1,0],[0.5,1,0],[0.25,1,0],[0,0.75,0],[0,0.5,0],[0,0.25,0]];resizable=0;editable=1;movableLabel=0;allowArrows=0;rotatable=0;strokeColor=#2086C9;fillColor=#63BEF2;recursiveResize=0;expand=0;" parent="1" vertex="1">
            <mxGeometry x="890" y="725" width="240" height="120" as="geometry" />
          </mxCell>
        </object>
        <mxCell id="3yBkZQmyVoDCvQ0rM44T-20" style="edgeStyle=orthogonalEdgeStyle;rounded=0;orthogonalLoop=1;jettySize=auto;html=1;exitX=1;exitY=0.5;exitDx=0;exitDy=0;exitPerimeter=0;entryX=0;entryY=0.5;entryDx=0;entryDy=0;entryPerimeter=0;endSize=14;startSize=14;strokeColor=#808080;jumpSize=16;endArrow=blockThin;endFill=1;jumpStyle=arc;fontStyle=1;fontSize=10;fontColor=#FFFFFF;" edge="1" parent="1" source="K7Ijc074V3d1b9qZD38j-15" target="3yBkZQmyVoDCvQ0rM44T-16">
          <mxGeometry relative="1" as="geometry" />
        </mxCell>
        <mxCell id="3yBkZQmyVoDCvQ0rM44T-25" value="Propagates changes" style="edgeLabel;html=1;align=center;verticalAlign=middle;resizable=0;points=[];fontStyle=1;fontSize=10;" vertex="1" connectable="0" parent="3yBkZQmyVoDCvQ0rM44T-20">
          <mxGeometry x="-0.1567" y="-2" relative="1" as="geometry">
            <mxPoint x="14" y="-2" as="offset" />
          </mxGeometry>
        </mxCell>
        <object label="&lt;font style=&quot;font-size: 16px&quot;&gt;&lt;b&gt;%A_NAME%&lt;/b&gt;&lt;/font&gt;&lt;br&gt;&lt;div&gt;&lt;div&gt;&lt;font style=&quot;font-size: 11px&quot;&gt;[Component: %B_TECHNOLOGY%]&lt;/font&gt;&lt;/div&gt;&lt;/div&gt;&lt;div style=&quot;font-size: 10px&quot;&gt;&lt;br&gt;&lt;/div&gt;&lt;div style=&quot;font-size: 11px&quot;&gt;&lt;font color=&quot;#FAFAFA&quot;&gt;%C_DESCRIPTION%&lt;/font&gt;&lt;/div&gt;" placeholders="1" A_NAME="Booking Integration service" B_TECHNOLOGY="Spring Service" C_DESCRIPTION="Integration system with Booking.com service" id="K7Ijc074V3d1b9qZD38j-15">
          <mxCell style="rounded=1;whiteSpace=wrap;html=1;fontColor=#ffffff;arcSize=6;metaEdit=1;points=[[0.25,0,0],[0.5,0,0],[0.75,0,0],[1,0.25,0],[1,0.5,0],[1,0.75,0],[0.75,1,0],[0.5,1,0],[0.25,1,0],[0,0.75,0],[0,0.5,0],[0,0.25,0]];resizable=0;editable=1;movableLabel=0;allowArrows=0;rotatable=0;strokeColor=#2086C9;fillColor=#63BEF2;recursiveResize=0;expand=0;" parent="1" vertex="1">
            <mxGeometry x="1420" y="525" width="240" height="120" as="geometry" />
          </mxCell>
        </object>
        <mxCell id="3yBkZQmyVoDCvQ0rM44T-21" style="edgeStyle=orthogonalEdgeStyle;rounded=0;orthogonalLoop=1;jettySize=auto;html=1;exitX=1;exitY=0.5;exitDx=0;exitDy=0;exitPerimeter=0;entryX=0;entryY=0.5;entryDx=0;entryDy=0;entryPerimeter=0;endSize=14;startSize=14;strokeColor=#808080;jumpSize=16;endArrow=blockThin;endFill=1;jumpStyle=arc;fontStyle=1;fontSize=10;fontColor=#FFFFFF;" edge="1" parent="1" source="K7Ijc074V3d1b9qZD38j-16" target="3yBkZQmyVoDCvQ0rM44T-17">
          <mxGeometry relative="1" as="geometry" />
        </mxCell>
        <object label="&lt;font style=&quot;font-size: 16px&quot;&gt;&lt;b&gt;%A_NAME%&lt;/b&gt;&lt;/font&gt;&lt;br&gt;&lt;div&gt;&lt;div&gt;&lt;font style=&quot;font-size: 11px&quot;&gt;[Component: %B_TECHNOLOGY%]&lt;/font&gt;&lt;/div&gt;&lt;/div&gt;&lt;div style=&quot;font-size: 10px&quot;&gt;&lt;br&gt;&lt;/div&gt;&lt;div style=&quot;font-size: 11px&quot;&gt;&lt;font color=&quot;#FAFAFA&quot;&gt;%C_DESCRIPTION%&lt;/font&gt;&lt;/div&gt;" placeholders="1" A_NAME="Airbnb Integration service" B_TECHNOLOGY="Spring Service" C_DESCRIPTION="Integration system with Airbnb.com service" id="K7Ijc074V3d1b9qZD38j-16">
          <mxCell style="rounded=1;whiteSpace=wrap;html=1;fontColor=#ffffff;arcSize=6;metaEdit=1;points=[[0.25,0,0],[0.5,0,0],[0.75,0,0],[1,0.25,0],[1,0.5,0],[1,0.75,0],[0.75,1,0],[0.5,1,0],[0.25,1,0],[0,0.75,0],[0,0.5,0],[0,0.25,0]];resizable=0;editable=1;movableLabel=0;allowArrows=0;rotatable=0;strokeColor=#2086C9;fillColor=#63BEF2;recursiveResize=0;expand=0;" parent="1" vertex="1">
            <mxGeometry x="1420" y="665" width="240" height="120" as="geometry" />
          </mxCell>
        </object>
        <object label="&lt;div&gt;&lt;b&gt;%A_DESCRIPTION%&lt;/b&gt;&lt;br&gt;&lt;/div&gt;" placeholders="1" A_DESCRIPTION="API calls" id="K7Ijc074V3d1b9qZD38j-19">
          <mxCell style="endArrow=blockThin;html=1;fontSize=10;fontColor=#FFFFFF;strokeWidth=1;endFill=1;strokeColor=#828282;elbow=vertical;metaEdit=1;backgroundOutline=0;editable=1;endSize=14;startSize=14;jumpStyle=arc;jumpSize=16;fontFamily=Helvetica;rounded=0;entryX=0.5;entryY=0;entryDx=0;entryDy=0;entryPerimeter=0;exitX=0.5;exitY=1;exitDx=0;exitDy=0;" parent="1" source="K7Ijc074V3d1b9qZD38j-3" target="K7Ijc074V3d1b9qZD38j-6" edge="1">
            <mxGeometry x="-0.2381" width="50" height="50" relative="1" as="geometry">
              <mxPoint x="585" y="620" as="sourcePoint" />
              <mxPoint x="583" y="714" as="targetPoint" />
              <Array as="points">
                <mxPoint x="585" y="660" />
              </Array>
              <mxPoint as="offset" />
            </mxGeometry>
          </mxCell>
        </object>
        <object label="&lt;div&gt;&lt;b&gt;%A_DESCRIPTION%&lt;/b&gt;&lt;br&gt;&lt;/div&gt;" placeholders="1" A_DESCRIPTION="Sends noifications " id="K7Ijc074V3d1b9qZD38j-20">
          <mxCell style="endArrow=blockThin;html=1;fontSize=10;fontColor=#FFFFFF;strokeWidth=1;endFill=1;strokeColor=#828282;elbow=vertical;metaEdit=1;backgroundOutline=0;editable=1;endSize=14;startSize=14;jumpStyle=arc;jumpSize=16;fontFamily=Helvetica;rounded=0;entryX=1;entryY=0.5;entryDx=0;entryDy=0;exitX=0;exitY=0.5;exitDx=0;exitDy=0;exitPerimeter=0;entryPerimeter=0;" parent="1" source="K7Ijc074V3d1b9qZD38j-6" target="K7Ijc074V3d1b9qZD38j-13" edge="1">
            <mxGeometry x="0.027" y="-15" width="50" height="50" relative="1" as="geometry">
              <mxPoint x="350" y="760" as="sourcePoint" />
              <mxPoint x="350" y="850" as="targetPoint" />
              <mxPoint as="offset" />
            </mxGeometry>
          </mxCell>
        </object>
        <object label="&lt;font style=&quot;font-size: 16px&quot;&gt;&lt;b&gt;%A_NAME%&lt;/b&gt;&lt;/font&gt;&lt;br&gt;&lt;div&gt;&lt;font style=&quot;font-size: 11px&quot;&gt;[Person]&lt;/font&gt;&lt;/div&gt;&lt;div style=&quot;font-size: 10px&quot;&gt;&lt;br&gt;&lt;/div&gt;&lt;div style=&quot;font-size: 11px&quot;&gt;&lt;font color=&quot;#CCCCCC&quot;&gt;%B_DESCRIPTION%&lt;/font&gt;&lt;/div&gt;" A_NAME="Staff member" B_DESCRIPTION="E. g. housekeeper" placeholders="1" id="K7Ijc074V3d1b9qZD38j-22">
          <mxCell style="shape=stencil(tZTRUsMgEEW/hsdmCNimr06s/4Fka3aSQAZwWv16STYZRaXjaDuTl3sXTu6SJUzWvlUjMMGNGoDJBybEoDRCJ3fbjb7bjOC8NdGNS1qql3tO+kRa8EUrP4IOZB7xDA3ZPjjbwQmbsADQtOAwTFV5YPw+rpkeWWtrTCSgNT6pfKpHmEIT9/IzwXixpde8LppUzI0DBHBLZnKZePw9OMUW1bXA5a3AvBDpWZTXI98MXP2DLOvo5IZG1k9Kd8/OvpjmxzxzxU0Tm/nmVWbO13tQrnPvtMe35fZIcfkUjtj3dCNyDWVix63WwYV+oO9x9PDRze7LCCfd7NNmVvn32N/SzS79XmbjHQ==);whiteSpace=wrap;html=1;rounded=1;fontColor=#ffffff;arcSize=30;allowArrows=0;rotatable=0;spacingTop=70;aspect=fixed;editable=1;metaEdit=1;resizable=0;fillColor=#6C6477;strokeColor=#4D4D4D;recursiveResize=0;expand=0;" parent="1" vertex="1">
            <mxGeometry x="-310" y="610" width="200" height="180" as="geometry" />
          </mxCell>
        </object>
        <object label="&lt;div&gt;&lt;b&gt;%A_DESCRIPTION%&lt;/b&gt;&lt;br&gt;&lt;/div&gt;" placeholders="1" A_DESCRIPTION="Recives noifications " id="K7Ijc074V3d1b9qZD38j-23">
          <mxCell style="endArrow=blockThin;html=1;fontSize=10;fontColor=#FFFFFF;strokeWidth=1;endFill=1;strokeColor=#828282;elbow=vertical;metaEdit=1;backgroundOutline=0;editable=1;endSize=14;startSize=14;jumpStyle=arc;jumpSize=16;fontFamily=Helvetica;rounded=0;entryX=1;entryY=0.7;entryDx=0;entryDy=0;exitX=0;exitY=0.5;exitDx=0;exitDy=0;exitPerimeter=0;" parent="1" source="K7Ijc074V3d1b9qZD38j-13" target="K7Ijc074V3d1b9qZD38j-22" edge="1">
            <mxGeometry x="-0.0976" y="7" width="50" height="50" relative="1" as="geometry">
              <mxPoint x="10" y="670" as="sourcePoint" />
              <mxPoint x="-175" y="670" as="targetPoint" />
              <mxPoint y="1" as="offset" />
            </mxGeometry>
          </mxCell>
        </object>
        <object label="&lt;div&gt;&lt;b&gt;%A_DESCRIPTION%&lt;/b&gt;&lt;br&gt;&lt;/div&gt;" placeholders="1" A_DESCRIPTION="Reads from and writes to db" id="K7Ijc074V3d1b9qZD38j-24">
          <mxCell style="endArrow=blockThin;html=1;fontSize=10;fontColor=#FFFFFF;strokeWidth=1;endFill=1;strokeColor=#828282;elbow=vertical;metaEdit=1;backgroundOutline=0;editable=1;endSize=14;startSize=14;jumpStyle=arc;jumpSize=16;fontFamily=Helvetica;rounded=0;entryX=0.5;entryY=0;entryDx=0;entryDy=0;entryPerimeter=0;exitX=0.5;exitY=1;exitDx=0;exitDy=0;exitPerimeter=0;" parent="1" source="K7Ijc074V3d1b9qZD38j-6" target="K7Ijc074V3d1b9qZD38j-1" edge="1">
            <mxGeometry width="50" height="50" relative="1" as="geometry">
              <mxPoint x="580" y="850" as="sourcePoint" />
              <mxPoint x="580" y="955" as="targetPoint" />
              <Array as="points" />
              <mxPoint as="offset" />
            </mxGeometry>
          </mxCell>
        </object>
        <object label="&lt;div&gt;&lt;b&gt;%A_DESCRIPTION%&lt;/b&gt;&lt;br&gt;&lt;/div&gt;" placeholders="1" A_DESCRIPTION="Sends changes to external services" id="K7Ijc074V3d1b9qZD38j-25">
          <mxCell style="endArrow=blockThin;html=1;fontSize=10;fontColor=#FFFFFF;strokeWidth=1;endFill=1;strokeColor=#828282;elbow=vertical;metaEdit=1;backgroundOutline=0;editable=1;endSize=14;startSize=14;jumpStyle=arc;jumpSize=16;fontFamily=Helvetica;rounded=0;entryX=0;entryY=0.5;entryDx=0;entryDy=0;entryPerimeter=0;exitX=1;exitY=0.5;exitDx=0;exitDy=0;exitPerimeter=0;" parent="1" source="K7Ijc074V3d1b9qZD38j-6" target="K7Ijc074V3d1b9qZD38j-14" edge="1">
            <mxGeometry x="0.027" y="15" width="50" height="50" relative="1" as="geometry">
              <mxPoint x="800" y="740" as="sourcePoint" />
              <mxPoint x="800" y="845" as="targetPoint" />
              <Array as="points" />
              <mxPoint as="offset" />
            </mxGeometry>
          </mxCell>
        </object>
        <object label="&lt;div&gt;&lt;b&gt;%A_DESCRIPTION%&lt;/b&gt;&lt;br&gt;&lt;/div&gt;" placeholders="1" A_DESCRIPTION="Sends changes to Booking.com service" id="K7Ijc074V3d1b9qZD38j-27">
          <mxCell style="endArrow=blockThin;html=1;fontSize=10;fontColor=#FFFFFF;strokeWidth=1;endFill=1;strokeColor=#828282;elbow=vertical;metaEdit=1;backgroundOutline=0;editable=1;endSize=14;startSize=14;jumpStyle=arc;jumpSize=16;fontFamily=Helvetica;rounded=0;entryX=0;entryY=0.5;entryDx=0;entryDy=0;entryPerimeter=0;exitX=1;exitY=0.5;exitDx=0;exitDy=0;exitPerimeter=0;" parent="1" source="K7Ijc074V3d1b9qZD38j-14" target="K7Ijc074V3d1b9qZD38j-15" edge="1">
            <mxGeometry x="0.1974" y="6" width="50" height="50" relative="1" as="geometry">
              <mxPoint x="1040" y="670" as="sourcePoint" />
              <mxPoint x="1225" y="670" as="targetPoint" />
              <Array as="points" />
              <mxPoint x="-1" as="offset" />
            </mxGeometry>
          </mxCell>
        </object>
        <object label="&lt;div&gt;&lt;b&gt;%A_DESCRIPTION%&lt;/b&gt;&lt;br&gt;&lt;/div&gt;" placeholders="1" A_DESCRIPTION="Sends changes to Airbnb.com service" id="K7Ijc074V3d1b9qZD38j-28">
          <mxCell style="endArrow=blockThin;html=1;fontSize=10;fontColor=#FFFFFF;strokeWidth=1;endFill=1;strokeColor=#828282;elbow=vertical;metaEdit=1;backgroundOutline=0;editable=1;endSize=14;startSize=14;jumpStyle=arc;jumpSize=16;fontFamily=Helvetica;rounded=0;entryX=0;entryY=0.5;entryDx=0;entryDy=0;entryPerimeter=0;exitX=1;exitY=0.5;exitDx=0;exitDy=0;exitPerimeter=0;" parent="1" source="K7Ijc074V3d1b9qZD38j-14" target="K7Ijc074V3d1b9qZD38j-16" edge="1">
            <mxGeometry x="0.2383" y="-2" width="50" height="50" relative="1" as="geometry">
              <mxPoint x="1140" y="795" as="sourcePoint" />
              <mxPoint x="1220" y="664" as="targetPoint" />
              <Array as="points" />
              <mxPoint as="offset" />
            </mxGeometry>
          </mxCell>
        </object>
        <object label="&lt;font style=&quot;font-size: 16px&quot;&gt;&lt;b&gt;&lt;font style=&quot;font-size: 16px&quot;&gt;&lt;span&gt;%A_NAME%&lt;/span&gt;&lt;/font&gt;&lt;/b&gt;&lt;/font&gt;&lt;br&gt;&lt;div&gt;&lt;font style=&quot;font-size: 11px&quot;&gt;[Container: %B_TECHNOLOGY%]&lt;/font&gt;&lt;/div&gt;&lt;div style=&quot;font-size: 10px&quot;&gt;&lt;br&gt;&lt;/div&gt;&lt;div style=&quot;font-size: 11px&quot;&gt;&lt;font&gt;%C_DESCRIPTION%&lt;/font&gt;&lt;/div&gt;" A_NAME="MessageDb" B_TECHNOLOGY="MongoDb" C_DESCRIPTION="Stores messages and their statuses" placeholders="1" id="3yBkZQmyVoDCvQ0rM44T-2">
          <mxCell style="shape=cylinder3;whiteSpace=wrap;html=1;boundedLbl=1;backgroundOutline=1;size=15;rounded=1;fontColor=#FFFFFF;arcSize=6;autosize=0;metaEdit=1;resizable=0;rotatable=0;allowArrows=0;fillColor=#23A2D9;strokeColor=#0E7DAD;spacingTop=0;recursiveResize=0;expand=0;" vertex="1" parent="1">
            <mxGeometry x="40" y="910" width="240" height="120" as="geometry" />
          </mxCell>
        </object>
        <mxCell id="3yBkZQmyVoDCvQ0rM44T-22" style="edgeStyle=orthogonalEdgeStyle;rounded=0;orthogonalLoop=1;jettySize=auto;html=1;exitX=1;exitY=0.5;exitDx=0;exitDy=0;exitPerimeter=0;entryX=0;entryY=0.5;entryDx=0;entryDy=0;entryPerimeter=0;endSize=14;startSize=14;strokeColor=#808080;jumpSize=16;endArrow=blockThin;endFill=1;jumpStyle=arc;fontStyle=1;fontSize=10;fontColor=#FFFFFF;" edge="1" parent="1" source="3yBkZQmyVoDCvQ0rM44T-4" target="3yBkZQmyVoDCvQ0rM44T-18">
          <mxGeometry relative="1" as="geometry" />
        </mxCell>
        <object label="&lt;font style=&quot;font-size: 16px&quot;&gt;&lt;b&gt;%A_NAME%&lt;/b&gt;&lt;/font&gt;&lt;br&gt;&lt;div&gt;&lt;div&gt;&lt;font style=&quot;font-size: 11px&quot;&gt;[Component: %B_TECHNOLOGY%]&lt;/font&gt;&lt;/div&gt;&lt;/div&gt;&lt;div style=&quot;font-size: 10px&quot;&gt;&lt;br&gt;&lt;/div&gt;&lt;div style=&quot;font-size: 11px&quot;&gt;&lt;font color=&quot;#FAFAFA&quot;&gt;%C_DESCRIPTION%&lt;/font&gt;&lt;/div&gt;" placeholders="1" A_NAME="Airbnb Integration service" B_TECHNOLOGY="Spring Service" C_DESCRIPTION="Integration system with Airbnb.com service" id="3yBkZQmyVoDCvQ0rM44T-4">
          <mxCell style="rounded=1;whiteSpace=wrap;html=1;fontColor=#ffffff;arcSize=6;metaEdit=1;points=[[0.25,0,0],[0.5,0,0],[0.75,0,0],[1,0.25,0],[1,0.5,0],[1,0.75,0],[0.75,1,0],[0.5,1,0],[0.25,1,0],[0,0.75,0],[0,0.5,0],[0,0.25,0]];resizable=0;editable=1;movableLabel=0;allowArrows=0;rotatable=0;strokeColor=#2086C9;fillColor=#63BEF2;recursiveResize=0;expand=0;" vertex="1" parent="1">
            <mxGeometry x="1420" y="805" width="240" height="120" as="geometry" />
          </mxCell>
        </object>
        <mxCell id="3yBkZQmyVoDCvQ0rM44T-23" style="edgeStyle=orthogonalEdgeStyle;rounded=0;orthogonalLoop=1;jettySize=auto;html=1;exitX=1;exitY=0.5;exitDx=0;exitDy=0;exitPerimeter=0;entryX=0;entryY=0.5;entryDx=0;entryDy=0;entryPerimeter=0;endSize=14;startSize=14;strokeColor=#808080;jumpSize=16;endArrow=blockThin;endFill=1;jumpStyle=arc;fontStyle=1;fontSize=10;fontColor=#FFFFFF;" edge="1" parent="1" source="3yBkZQmyVoDCvQ0rM44T-5" target="3yBkZQmyVoDCvQ0rM44T-19">
          <mxGeometry relative="1" as="geometry" />
        </mxCell>
        <object label="&lt;font style=&quot;font-size: 16px&quot;&gt;&lt;b&gt;%A_NAME%&lt;/b&gt;&lt;/font&gt;&lt;br&gt;&lt;div&gt;&lt;div&gt;&lt;font style=&quot;font-size: 11px&quot;&gt;[Component: %B_TECHNOLOGY%]&lt;/font&gt;&lt;/div&gt;&lt;/div&gt;&lt;div style=&quot;font-size: 10px&quot;&gt;&lt;br&gt;&lt;/div&gt;&lt;div style=&quot;font-size: 11px&quot;&gt;&lt;font color=&quot;#FAFAFA&quot;&gt;%C_DESCRIPTION%&lt;/font&gt;&lt;/div&gt;" placeholders="1" A_NAME="Airbnb Integration service" B_TECHNOLOGY="Spring Service" C_DESCRIPTION="Integration system with Airbnb.com service" id="3yBkZQmyVoDCvQ0rM44T-5">
          <mxCell style="rounded=1;whiteSpace=wrap;html=1;fontColor=#ffffff;arcSize=6;metaEdit=1;points=[[0.25,0,0],[0.5,0,0],[0.75,0,0],[1,0.25,0],[1,0.5,0],[1,0.75,0],[0.75,1,0],[0.5,1,0],[0.25,1,0],[0,0.75,0],[0,0.5,0],[0,0.25,0]];resizable=0;editable=1;movableLabel=0;allowArrows=0;rotatable=0;strokeColor=#2086C9;fillColor=#63BEF2;recursiveResize=0;expand=0;" vertex="1" parent="1">
            <mxGeometry x="1420" y="945" width="240" height="120" as="geometry" />
          </mxCell>
        </object>
        <object label="&lt;font style=&quot;font-size: 16px&quot;&gt;&lt;b&gt;&lt;font style=&quot;font-size: 16px&quot;&gt;&lt;span&gt;%A_NAME%&lt;/span&gt;&lt;/font&gt;&lt;/b&gt;&lt;/font&gt;&lt;br&gt;&lt;div&gt;&lt;font style=&quot;font-size: 11px&quot;&gt;[Container: %B_TECHNOLOGY%]&lt;/font&gt;&lt;/div&gt;&lt;div style=&quot;font-size: 10px&quot;&gt;&lt;br&gt;&lt;/div&gt;&lt;div style=&quot;font-size: 11px&quot;&gt;&lt;font&gt;%C_DESCRIPTION%&lt;/font&gt;&lt;/div&gt;" A_NAME="KeycloakDb" B_TECHNOLOGY="Postgres" C_DESCRIPTION="Stores data about users" placeholders="1" id="3yBkZQmyVoDCvQ0rM44T-11">
          <mxCell style="shape=cylinder3;whiteSpace=wrap;html=1;boundedLbl=1;backgroundOutline=1;size=15;rounded=1;fontColor=#FFFFFF;arcSize=6;autosize=0;metaEdit=1;resizable=0;rotatable=0;allowArrows=0;fillColor=#23A2D9;strokeColor=#0E7DAD;spacingTop=0;recursiveResize=0;expand=0;" vertex="1" parent="1">
            <mxGeometry x="681" y="1425" width="240" height="120" as="geometry" />
          </mxCell>
        </object>
        <object label="&lt;font style=&quot;font-size: 16px&quot;&gt;&lt;b&gt;%A_NAME%&lt;/b&gt;&lt;/font&gt;&lt;br&gt;&lt;div&gt;&lt;div&gt;&lt;font style=&quot;font-size: 11px&quot;&gt;[Component: %B_TECHNOLOGY%]&lt;/font&gt;&lt;/div&gt;&lt;/div&gt;&lt;div style=&quot;font-size: 10px&quot;&gt;&lt;br&gt;&lt;/div&gt;&lt;div style=&quot;font-size: 11px&quot;&gt;&lt;font color=&quot;#FAFAFA&quot;&gt;%C_DESCRIPTION%&lt;/font&gt;&lt;/div&gt;" placeholders="1" A_NAME="ApartManager API Server" B_TECHNOLOGY="Docker image" C_DESCRIPTION="Manages authorization and authentication of system users  " id="3yBkZQmyVoDCvQ0rM44T-12">
          <mxCell style="rounded=1;whiteSpace=wrap;html=1;fontColor=#ffffff;arcSize=6;metaEdit=1;points=[[0.25,0,0],[0.5,0,0],[0.75,0,0],[1,0.25,0],[1,0.5,0],[1,0.75,0],[0.75,1,0],[0.5,1,0],[0.25,1,0],[0,0.75,0],[0,0.5,0],[0,0.25,0]];resizable=0;editable=1;movableLabel=0;allowArrows=0;rotatable=0;strokeColor=#2086C9;fillColor=#63BEF2;recursiveResize=0;expand=0;" vertex="1" parent="1">
            <mxGeometry x="681" y="1215" width="240" height="120" as="geometry" />
          </mxCell>
        </object>
        <object label="&lt;div&gt;&lt;b&gt;%A_DESCRIPTION%&lt;/b&gt;&lt;br&gt;&lt;/div&gt;" placeholders="1" A_DESCRIPTION="Reads from and writes to db" id="3yBkZQmyVoDCvQ0rM44T-13">
          <mxCell style="endArrow=blockThin;html=1;fontSize=10;fontColor=#FFFFFF;strokeWidth=1;endFill=1;strokeColor=#828282;elbow=vertical;metaEdit=1;backgroundOutline=0;editable=1;endSize=14;startSize=14;jumpStyle=arc;jumpSize=16;fontFamily=Helvetica;rounded=0;entryX=0.5;entryY=0;entryDx=0;entryDy=0;entryPerimeter=0;exitX=0.5;exitY=1;exitDx=0;exitDy=0;exitPerimeter=0;" edge="1" parent="1" source="3yBkZQmyVoDCvQ0rM44T-12" target="3yBkZQmyVoDCvQ0rM44T-11">
            <mxGeometry width="50" height="50" relative="1" as="geometry">
              <mxPoint x="796" y="1340" as="sourcePoint" />
              <mxPoint x="796" y="1445" as="targetPoint" />
              <Array as="points" />
              <mxPoint as="offset" />
            </mxGeometry>
          </mxCell>
        </object>
        <object placeholders="1" c4Name="Booking.com service" c4Type="External Software System" c4Description="" label="&lt;font style=&quot;font-size: 16px&quot;&gt;&lt;b&gt;%c4Name%&lt;/b&gt;&lt;/font&gt;&lt;div&gt;[%c4Type%]&lt;/div&gt;&lt;br&gt;&lt;div&gt;&lt;font style=&quot;font-size: 11px&quot;&gt;&lt;font color=&quot;#cccccc&quot;&gt;%c4Description%&lt;/font&gt;&lt;/div&gt;" id="3yBkZQmyVoDCvQ0rM44T-16">
          <mxCell style="rounded=1;whiteSpace=wrap;html=1;labelBackgroundColor=none;fillColor=#8C8496;fontColor=#ffffff;align=center;arcSize=10;strokeColor=#736782;metaEdit=1;resizable=0;points=[[0.25,0,0],[0.5,0,0],[0.75,0,0],[1,0.25,0],[1,0.5,0],[1,0.75,0],[0.75,1,0],[0.5,1,0],[0.25,1,0],[0,0.75,0],[0,0.5,0],[0,0.25,0]];" vertex="1" parent="1">
            <mxGeometry x="1850" y="525" width="240" height="120" as="geometry" />
          </mxCell>
        </object>
        <object placeholders="1" c4Name="Booking.com service" c4Type="External Software System" c4Description="" label="&lt;font style=&quot;font-size: 16px&quot;&gt;&lt;b&gt;%c4Name%&lt;/b&gt;&lt;/font&gt;&lt;div&gt;[%c4Type%]&lt;/div&gt;&lt;br&gt;&lt;div&gt;&lt;font style=&quot;font-size: 11px&quot;&gt;&lt;font color=&quot;#cccccc&quot;&gt;%c4Description%&lt;/font&gt;&lt;/div&gt;" id="3yBkZQmyVoDCvQ0rM44T-17">
          <mxCell style="rounded=1;whiteSpace=wrap;html=1;labelBackgroundColor=none;fillColor=#8C8496;fontColor=#ffffff;align=center;arcSize=10;strokeColor=#736782;metaEdit=1;resizable=0;points=[[0.25,0,0],[0.5,0,0],[0.75,0,0],[1,0.25,0],[1,0.5,0],[1,0.75,0],[0.75,1,0],[0.5,1,0],[0.25,1,0],[0,0.75,0],[0,0.5,0],[0,0.25,0]];" vertex="1" parent="1">
            <mxGeometry x="1850" y="665" width="240" height="120" as="geometry" />
          </mxCell>
        </object>
        <object placeholders="1" c4Name="Booking.com service" c4Type="External Software System" c4Description="" label="&lt;font style=&quot;font-size: 16px&quot;&gt;&lt;b&gt;%c4Name%&lt;/b&gt;&lt;/font&gt;&lt;div&gt;[%c4Type%]&lt;/div&gt;&lt;br&gt;&lt;div&gt;&lt;font style=&quot;font-size: 11px&quot;&gt;&lt;font color=&quot;#cccccc&quot;&gt;%c4Description%&lt;/font&gt;&lt;/div&gt;" id="3yBkZQmyVoDCvQ0rM44T-18">
          <mxCell style="rounded=1;whiteSpace=wrap;html=1;labelBackgroundColor=none;fillColor=#8C8496;fontColor=#ffffff;align=center;arcSize=10;strokeColor=#736782;metaEdit=1;resizable=0;points=[[0.25,0,0],[0.5,0,0],[0.75,0,0],[1,0.25,0],[1,0.5,0],[1,0.75,0],[0.75,1,0],[0.5,1,0],[0.25,1,0],[0,0.75,0],[0,0.5,0],[0,0.25,0]];" vertex="1" parent="1">
            <mxGeometry x="1850" y="805" width="240" height="120" as="geometry" />
          </mxCell>
        </object>
        <object placeholders="1" c4Name="Booking.com service" c4Type="External Software System" c4Description="" label="&lt;font style=&quot;font-size: 16px&quot;&gt;&lt;b&gt;%c4Name%&lt;/b&gt;&lt;/font&gt;&lt;div&gt;[%c4Type%]&lt;/div&gt;&lt;br&gt;&lt;div&gt;&lt;font style=&quot;font-size: 11px&quot;&gt;&lt;font color=&quot;#cccccc&quot;&gt;%c4Description%&lt;/font&gt;&lt;/div&gt;" id="3yBkZQmyVoDCvQ0rM44T-19">
          <mxCell style="rounded=1;whiteSpace=wrap;html=1;labelBackgroundColor=none;fillColor=#8C8496;fontColor=#ffffff;align=center;arcSize=10;strokeColor=#736782;metaEdit=1;resizable=0;points=[[0.25,0,0],[0.5,0,0],[0.75,0,0],[1,0.25,0],[1,0.5,0],[1,0.75,0],[0.75,1,0],[0.5,1,0],[0.25,1,0],[0,0.75,0],[0,0.5,0],[0,0.25,0]];" vertex="1" parent="1">
            <mxGeometry x="1850" y="945" width="240" height="120" as="geometry" />
          </mxCell>
        </object>
        <mxCell id="3yBkZQmyVoDCvQ0rM44T-27" value="Propagates changes" style="edgeLabel;html=1;align=center;verticalAlign=middle;resizable=0;points=[];fontStyle=1;fontSize=10;" vertex="1" connectable="0" parent="1">
          <mxGeometry x="1754.0000000000005" y="725" as="geometry" />
        </mxCell>
        <mxCell id="3yBkZQmyVoDCvQ0rM44T-28" value="Propagates changes" style="edgeLabel;html=1;align=center;verticalAlign=middle;resizable=0;points=[];fontStyle=1;fontSize=10;" vertex="1" connectable="0" parent="1">
          <mxGeometry x="1754.0000000000005" y="865" as="geometry" />
        </mxCell>
        <mxCell id="3yBkZQmyVoDCvQ0rM44T-29" value="Propagates changes" style="edgeLabel;html=1;align=center;verticalAlign=middle;resizable=0;points=[];fontStyle=1;fontSize=10;" vertex="1" connectable="0" parent="1">
          <mxGeometry x="1754.0000000000005" y="1005" as="geometry" />
        </mxCell>
      </root>
    </mxGraphModel>
  </diagram>
</mxfile>
